<svg width="169" height="44" viewBox="0 0 169 44" fill="none" xmlns="http://www.w3.org/2000/svg">
<path d="M30.5236 29.1867C29.9897 28.6374 29.3453 28.3811 28.7194 28.5093C28.0935 28.6191 27.5412 29.0952 27.2834 29.7178C27.2282 29.8459 27.265 30.0107 27.3939 30.084C27.5227 30.1755 27.67 30.1572 27.7805 30.0656C28.0566 29.8276 28.3144 29.7178 28.5353 29.7727C28.7194 29.8276 28.8851 30.0107 28.9771 30.2854C29.0508 30.5234 29.014 30.8713 28.8667 31.091C28.8114 31.1643 28.701 31.2924 28.5721 31.3108C28.1119 31.3657 27.4123 30.7798 26.6759 30.1755C25.9579 29.5713 25.1295 28.8938 24.209 28.5276C22.9571 28.0149 19.5328 27.2642 17.1211 29.0769C17.1027 29.0769 17.1027 29.0952 17.0843 29.0952C17.0291 29.1318 15.6483 30.1938 15.3354 31.3108C14.8383 32.3545 14.7647 33.3432 15.1329 34.2221C14.8383 34.4602 14.6726 34.7531 14.6726 35.0827C14.6726 35.7968 15.4826 36.3644 16.5504 36.4377C16.44 36.6025 16.3847 36.7856 16.3847 36.987C16.3847 37.7377 17.2868 38.342 18.4466 38.342C19.2935 38.342 19.9931 38.0307 20.3245 37.5546C20.6558 38.0124 21.3554 38.342 22.2023 38.342C23.3621 38.342 24.2642 37.756 24.2642 36.987C24.2642 36.7856 24.209 36.6025 24.0985 36.4377C24.7797 36.4011 25.3688 36.1447 25.7002 35.7602C25.7554 35.7602 25.8106 35.7236 25.8474 35.6869C26.0868 35.4855 26.547 35.3574 26.952 35.2658C27.0809 35.2475 27.1545 35.2475 27.1545 35.2475H27.173C27.2466 35.2475 28.9403 35.0644 29.8976 33.9841C31.0943 32.6657 31.6098 30.322 30.5236 29.1867ZM16.3663 33.4165C16.4031 33.1235 16.5504 32.8488 16.7898 32.5925C16.6425 32.7756 16.5504 32.9953 16.5504 33.2334C16.5504 33.4348 16.6057 33.6179 16.7161 33.7827C16.6057 33.7827 16.4952 33.801 16.3663 33.801C16.3663 33.6545 16.3479 33.5263 16.3663 33.4165ZM15.317 35.1193C15.317 34.9545 15.4642 34.7714 15.7036 34.6433C15.8877 34.5517 16.1086 34.4785 16.3479 34.4235C16.4768 34.4052 16.6241 34.3869 16.7529 34.3869C17.5998 34.3869 18.1889 34.7714 18.1889 35.1193C18.1889 35.3024 18.0048 35.4672 17.9128 35.5405C17.6366 35.7419 17.2132 35.8517 16.7529 35.8517C15.9061 35.8334 15.317 35.4672 15.317 35.1193ZM20.4165 32.5376C20.0667 32.1347 19.404 31.8601 18.6307 31.8601C18.373 31.8601 18.1153 31.8967 17.8759 31.9516C18.6307 31.6953 19.5881 31.622 20.5822 31.7685C20.8768 31.8051 21.1897 31.8784 21.4843 31.9516C21.024 32.0615 20.6558 32.2629 20.4165 32.5376ZM22.2023 32.5009C22.3496 32.5009 22.5337 32.5192 22.6809 32.5376C23.2516 32.6291 23.7487 32.9221 23.7487 33.215V33.2334C23.7487 33.4714 23.4173 33.7094 22.9939 33.8559C22.773 33.9291 22.4968 33.9658 22.2207 33.9658C21.3738 33.9658 20.7663 33.5813 20.7663 33.2334C20.7663 32.8855 21.3554 32.5009 22.2023 32.5009ZM18.6307 32.5009C19.4592 32.5009 20.0667 32.8855 20.0667 33.2334C20.0667 33.4165 19.901 33.6179 19.6065 33.746C19.5328 33.7827 19.4408 33.8193 19.3671 33.8376C19.1462 33.9108 18.8885 33.9475 18.6307 33.9475C17.8023 33.9475 17.1948 33.5629 17.1948 33.215C17.1764 32.8855 17.7839 32.5009 18.6307 32.5009ZM18.4466 37.7377C17.5998 37.7377 17.0107 37.2983 17.0107 36.9687C17.0107 36.6208 17.6182 36.1996 18.4466 36.1996H18.4651L18.4835 36.2546L18.5019 36.2729C18.9253 36.2729 19.3119 36.4011 19.5881 36.5842C19.6985 36.6574 19.8826 36.8222 19.8826 37.0236C19.8826 37.3532 19.2935 37.7377 18.4466 37.7377ZM20.3245 35.8334C19.4776 35.8334 18.8885 35.4489 18.8885 35.101C18.8885 34.863 19.1646 34.6249 19.5697 34.4968C19.6433 34.4785 19.7353 34.4418 19.8274 34.4235C19.9931 34.3869 20.1588 34.3686 20.3245 34.3686C21.1713 34.3686 21.7604 34.7531 21.7604 35.101C21.7604 35.4672 21.1713 35.8334 20.3245 35.8334ZM22.2023 37.7377C21.3554 37.7377 20.7663 37.3532 20.7663 37.0053C20.7663 36.8954 20.8215 36.7856 20.9504 36.6757C20.9504 36.6757 20.9504 36.6757 20.9688 36.6574C21.2265 36.4194 21.7052 36.2729 22.2207 36.2729C22.4784 36.2729 22.7362 36.3095 22.9571 36.3827C23.3805 36.5109 23.6567 36.7673 23.6567 37.0053C23.6383 37.3532 23.0491 37.7377 22.2023 37.7377ZM25.2767 35.3207C25.111 35.5771 24.614 35.8517 23.896 35.8517C23.6567 35.8517 23.4357 35.8151 23.2148 35.7602C22.7546 35.632 22.46 35.3757 22.46 35.1193C22.46 34.8813 22.7362 34.6433 23.1596 34.4968C23.3805 34.4235 23.6383 34.3869 23.896 34.3869C24.0617 34.3869 24.2274 34.4052 24.3746 34.4418C24.9269 34.5517 25.332 34.8264 25.332 35.1193C25.332 35.1743 25.3136 35.2475 25.2767 35.3207ZM24.0985 33.7644C24.0985 33.746 24.1169 33.746 24.1169 33.7277C24.1169 33.746 24.1353 33.746 24.1353 33.7644C24.1169 33.7644 24.1169 33.7644 24.0985 33.7644ZM26.6207 34.7165C26.5654 34.7165 26.5102 34.7531 26.4734 34.7897C26.3445 34.8264 26.1972 34.863 26.0868 34.9179C26.0315 34.7165 25.8106 34.3137 25.5161 33.6545C25.0558 32.6291 24.0433 31.2558 21.8157 30.5783C18.8517 29.6811 17.2868 30.1206 16.532 30.5417C16.5872 30.4868 16.6241 30.4319 16.6793 30.3769C16.7161 30.3586 16.7529 30.3403 16.7898 30.3037C17.0107 30.0473 17.25 29.8276 17.5077 29.6262C18.5387 29.26 20.1035 29.0952 22.3864 29.791C25.424 30.7065 26.3261 32.9038 26.5838 33.801C26.6759 34.1123 26.7311 34.4418 26.7311 34.7348C26.6575 34.6982 26.6391 34.7165 26.6207 34.7165ZM28.6642 34.2038C28.3696 34.3686 28.0566 34.4602 27.7989 34.5334C27.7805 34.5334 27.7805 34.5334 27.7621 34.5334C27.9462 33.0503 27.1177 31.6037 26.7495 31.0727C27.265 31.4756 27.7437 31.8051 28.2039 31.915C28.4801 32.3911 28.7746 33.1601 28.6642 34.2038Z" fill="white"/>
<path d="M21.798 7.3791C25.0197 7.34248 27.5603 5.73116 27.5603 3.6987C27.5603 1.64794 25.0197 0.0366208 21.798 0C18.5578 0.0366208 16.0356 1.64794 16.0356 3.68039C16.0541 5.73116 18.5578 7.34248 21.798 7.3791ZM21.798 1.4099C23.4733 1.4099 24.6515 2.05077 24.6515 2.91136C24.6515 3.5156 23.9887 4.06491 22.9394 4.30295C21.9636 4.61423 22.3318 4.94381 21.8164 5.2734L21.798 5.25509C21.2825 4.88888 21.6691 4.59591 20.6749 4.28464C19.644 4.0466 18.9628 3.5156 18.9628 2.91136C18.9628 2.05077 20.1779 1.4099 21.798 1.4099Z" fill="white"/>
<path d="M44 27.8134V10.6932C44 10.4918 43.8711 10.3087 43.7054 10.2171C43.5397 10.1256 43.3557 10.1256 43.19 10.2171L41.4226 11.2242V5.20007C41.4226 4.99866 41.2753 4.81555 41.0912 4.724C40.9071 4.63245 40.6862 4.63245 40.5021 4.74231L32.0704 10.0523C31.9967 10.034 31.9047 10.0523 31.831 10.0706C30.3766 10.5284 28.9959 10.7481 27.7808 10.7481C25.7373 10.7481 24.3934 10.1256 23.5466 9.48471C22.6997 8.84385 22.3499 8.25791 22.3315 8.20298C22.2395 8.01988 22.0554 7.98326 21.8713 7.98326C21.6687 7.98326 21.4846 8.03819 21.411 8.20298C21.3558 8.31284 20.0303 10.7848 15.9617 10.7848C14.7282 10.7848 13.3659 10.5284 11.9115 10.0706C11.8747 10.0523 11.8378 10.0523 11.801 10.034L3.31403 4.74231C3.14834 4.63245 3.0747 4.63245 2.8906 4.724C2.7065 4.81555 2.74332 4.99866 2.74332 5.20007V11.2242L0.828687 10.2171C0.662998 10.1256 0.442078 10.1256 0.276389 10.2171C0.110699 10.327 0.000239613 10.5101 0.000239613 10.6932V27.7951C0.000239613 28.0515 -0.0918102 32.1347 3.33244 35.6137C6.38849 38.7265 11.1198 40.3012 17.4713 40.3012C17.5265 40.3012 17.5633 40.3011 17.6001 40.2828C20.0118 40.9786 21.3558 41.5646 21.3558 43.4872C21.3558 43.7801 21.5767 43.9999 21.8713 43.9999C22.1658 43.9999 22.3867 43.7618 22.3867 43.4872C22.3867 41.5463 23.7491 40.9603 26.1976 40.2645C26.2528 40.2828 26.3265 40.3012 26.4001 40.3012C32.7515 40.3012 37.5381 38.7265 40.5942 35.6137C44 32.153 44 28.0515 44 27.8134ZM40.2444 12.1214V18.7132L34.2243 21.8626C34.2243 21.8626 33.3038 19.4273 36.1205 14.7581C37.8143 13.6961 40.2444 12.1214 40.2444 12.1214ZM34.9791 26.605C34.9423 26.6416 34.9239 26.6599 34.8871 26.6965C34.8687 26.6599 34.8687 26.6416 34.8503 26.605C34.9055 26.605 34.9423 26.605 34.9791 26.605ZM22.4604 9.74106C23.3809 10.6566 24.9825 11.8101 27.8913 11.8101C29.1248 11.8101 30.3951 11.6087 31.8126 11.1876C33.3406 13.6046 34.1323 14.6849 34.5557 15.1609C33.8009 16.3511 31.7574 20.2146 33.2854 25.2683C32.4938 24.5908 31.021 24.426 29.2352 24.3528C28.9959 23.2541 28.9959 22.2654 29.0695 21.8992H31.7206C32.0151 21.8992 32.0151 21.2583 32.0151 20.8738V18.4385C32.0151 16.5708 30.9658 16.461 30.9658 16.461C30.9658 16.461 30.303 16.3694 29.9716 15.4905C29.6587 14.6116 29.1248 13.9158 28.3331 13.8243C27.5599 13.7327 26.308 14.3553 25.3323 14.8863C24.7432 15.2159 24.688 15.6553 24.6143 16.2779C24.4118 17.816 23.9332 17.7427 23.9332 17.7427C23.6386 17.7427 23.5281 18.054 23.5281 18.4385V20.8738C23.5281 21.2583 23.5281 21.8992 23.8043 21.8992H26.2896C26.3633 22.2654 26.4553 23.2358 26.1792 24.3711C24.4118 24.4626 23.1415 24.664 22.4051 25.3965V9.74106H22.4604ZM27.0076 21.8992H28.4068C28.3331 22.2654 28.3331 23.2908 28.5541 24.3345C28.5357 24.3345 28.5172 24.2978 28.4988 24.2978L26.8603 24.2246C27.0629 23.2175 27.0629 22.2654 27.0076 21.8992ZM11.9483 11.1876C13.3659 11.6087 14.7834 11.8101 15.9985 11.8101C18.4838 11.8101 20.2512 10.9679 21.1717 10.1439V25.1035C20.4353 24.6274 19.2202 24.4077 17.8395 24.3162C17.6922 23.5654 17.6554 21.8076 17.8579 21.2949C18.9809 21.0386 19.0177 19.9033 19.0729 18.9329C19.1098 18.2188 18.8336 15.7103 18.8336 15.7103C18.9441 15.637 19.4411 15.5088 19.5148 15.4722C19.6621 15.4539 19.8093 15.3807 19.8646 15.2342C19.9014 15.0511 19.975 14.7764 19.9014 14.6849C19.8093 14.575 19.2754 14.5201 19.165 14.337C18.9073 14.0623 18.6495 13.8792 18.3918 13.9158C18.0604 13.9341 17.7106 13.9341 17.5081 14.3004C17.1951 14.0806 16.8822 14.3736 16.5324 14.282C16.5324 14.282 16.4403 15.4356 17.6922 15.3257L17.8211 18.4019C17.8211 18.4019 17.9131 19.0244 17.0294 18.8596C16.3667 18.7315 14.7834 18.1272 14.0286 18.347C13.4579 18.5117 12.832 18.8047 12.4822 19.9949C12.114 21.1851 12.7215 20.7822 12.7215 20.7822L13.3474 20.3611C13.3474 20.3611 13.7893 21.4048 13.2738 21.9907C12.8688 22.4668 13.0345 22.8147 13.0345 22.8147C13.0345 22.8147 13.2186 23.895 13.1818 24.426C12.0219 24.5359 11.083 24.7739 10.4755 25.2317C11.9667 20.2146 9.94161 16.3877 9.1868 15.2159C9.59182 14.6849 10.4203 13.6046 11.9483 11.1876ZM13.8445 22.7781C14.5809 22.5217 14.8387 21.1301 14.8387 21.1301C14.8387 21.1301 15.9248 21.8442 16.7533 21.478C16.7533 21.8076 16.6428 22.3569 16.6428 22.3569C16.6428 22.3569 16.514 22.7598 16.7533 23.2175C16.8822 23.4373 16.9558 23.9683 16.9926 24.2978C16.606 24.2795 16.1826 24.2795 15.7592 24.2795C15.078 24.2795 14.4152 24.2978 13.7893 24.3345C13.8261 23.7119 13.8629 23.4006 13.8445 22.7781ZM3.57177 12.1214C3.57177 12.1214 6.00188 13.6961 7.6956 14.7581C10.5123 19.4456 9.59182 21.8626 9.59182 21.8626L3.57177 18.7132V12.1214ZM7.78764 33.215C3.9952 31.0727 1.32576 29.5346 1.32576 29.5346L1.17848 22.6865L8.43199 26.7881C8.43199 26.8064 6.81192 29.9924 7.78764 33.215ZM8.85542 26.6233C8.85542 26.6233 8.83701 26.605 8.85542 26.6233C8.83701 26.605 8.85542 26.605 8.85542 26.6233C8.85542 26.605 8.85542 26.6233 8.85542 26.6233ZM30.9842 37.1151C29.6218 38.1588 27.9465 38.6715 26.3265 39.1293C24.4855 39.642 22.6997 40.1547 21.8528 41.4913C21.006 40.1547 19.2202 39.6603 17.3792 39.1476C15.7592 38.6898 14.0838 38.1588 12.7215 37.1151C9.22362 34.4418 7.93492 32.3361 9.83115 26.843H33.8745C35.7892 32.3361 34.5005 34.4418 30.9842 37.1151ZM41.9749 29.5346C41.9749 29.5346 39.2871 31.0544 35.513 33.215C36.4887 29.9924 34.8687 26.7881 34.8687 26.7881L42.1222 22.6865L41.9749 29.5346Z" fill="white"/>
<path d="M72.0119 16.16C70.7879 14.504 68.5199 13.712 66.6119 13.712C62.2919 13.712 58.3679 17.132 58.3679 22.532C58.3679 27.932 62.2919 31.388 66.6119 31.388C68.4839 31.388 70.7879 30.56 72.0119 28.904V29.372C72.0119 33.728 70.1039 35.42 67.0799 35.42C65.2799 35.42 63.5519 34.34 62.8319 32.792L58.9079 34.484C60.3479 37.616 63.4799 39.632 67.0799 39.632C73.0199 39.632 76.7279 36.212 76.7279 28.868V14.144H72.0119V16.16ZM67.5119 26.996C65.1359 26.996 63.1559 24.98 63.1559 22.532C63.1559 20.048 65.1359 18.104 67.5119 18.104C69.7079 18.104 71.8679 19.94 71.8679 22.532C71.8679 25.088 69.8159 26.996 67.5119 26.996Z" fill="white"/>
<path d="M88.7612 31.388C93.5492 31.388 97.7972 27.86 97.7972 22.568C97.7972 17.24 93.5492 13.712 88.7612 13.712C83.9732 13.712 79.7252 17.24 79.7252 22.568C79.7252 27.86 83.9732 31.388 88.7612 31.388ZM88.7612 26.996C86.4212 26.996 84.5132 25.16 84.5132 22.568C84.5132 19.94 86.4212 18.104 88.7612 18.104C91.1012 18.104 93.0092 19.94 93.0092 22.568C93.0092 25.16 91.1012 26.996 88.7612 26.996Z" fill="white"/>
<path d="M110.907 13.712C108.999 13.712 106.695 14.468 105.507 16.16V5H100.791V30.956H105.507V28.868C106.695 30.596 108.999 31.388 110.907 31.388C115.227 31.388 119.151 27.932 119.151 22.532C119.151 17.132 115.227 13.712 110.907 13.712ZM110.007 26.996C107.703 26.996 105.651 25.088 105.651 22.532C105.651 19.94 107.811 18.104 110.007 18.104C112.383 18.104 114.327 20.048 114.327 22.532C114.327 24.98 112.383 26.996 110.007 26.996Z" fill="white"/>
<path d="M124.349 31.28C126.005 31.28 127.409 30.056 127.409 28.364C127.409 26.708 126.005 25.484 124.349 25.484C122.729 25.484 121.361 26.708 121.361 28.364C121.361 30.056 122.729 31.28 124.349 31.28Z" fill="white"/>
<path d="M140.897 13.712C138.989 13.712 136.685 14.504 135.497 16.196V14.144H130.781V39.2H135.497V28.868C136.685 30.596 138.989 31.388 140.897 31.388C145.217 31.388 149.141 27.968 149.141 22.532C149.141 17.168 145.217 13.712 140.897 13.712ZM139.997 26.996C137.801 26.996 135.641 25.124 135.641 22.568C135.641 20.012 137.693 18.104 139.997 18.104C142.373 18.104 144.317 20.084 144.317 22.568C144.317 25.052 142.373 26.996 139.997 26.996Z" fill="white"/>
<path d="M168.842 22.28C168.842 17.132 164.918 13.712 160.094 13.712C155.306 13.712 151.166 17.132 151.166 22.568C151.166 27.752 154.946 31.388 160.13 31.388C163.082 31.388 165.998 30.128 167.582 28.004L164.846 25.232C163.802 26.42 162.146 27.212 160.418 27.212C158.186 27.212 156.602 26.06 156.098 24.08H168.734C168.806 23.324 168.842 22.748 168.842 22.28ZM156.098 21.02C156.602 18.752 158.258 17.78 160.202 17.78C162.326 17.78 163.946 19.04 164.09 21.02H156.098Z" fill="white"/>
</svg>
